<svg xmlns="http://www.w3.org/2000/svg" width="960" height="960" version="1.1" viewBox="0 0 960 960"><g fill-opacity="1" stroke="none"><path d="M701.523 54.348c235.012 122.234 326.356 411.62 204.043 646.41-122.312 234.793-411.984 326.101-647.043 203.96C23.465 782.583-68 493.23 54.22 258.392 176.582 23.504 466.37-67.844 701.523 54.348zm0 0" fill="#118c4f" fill-rule="evenodd"/><path d="M665.871 649.227a254.1 254.1 0 0 1-142.976 77.906l-22.286 100.351-64.988-14.468 18.57-83.657a253.275 253.275 0 0 1-65.363-15.765l-18.57 84.77-64.988-14.47 23.023-104.062c-78.277-59.504-114.813-159.02-93.602-254.973 21.211-95.949 96.305-170.843 192.387-191.879l23.027-104.062 64.989 14.469-18.567 84.77a253.172 253.172 0 0 1 65.918 13.355l18.567-83.657 64.992 14.47-22.281 100.35a251.228 251.228 0 0 1 68.703 71.602 239.806 239.806 0 0 1 28.039 59.543l-104.543 33.016a156.83 156.83 0 0 0-15.598-33.945c-42.554-66.477-131.011-85.883-197.535-43.344-66.527 42.543-85.918 130.914-43.305 197.351 42.614 66.438 131.086 85.77 197.575 43.172a152.582 152.582 0 0 0 28.597-24.113l80.586 74.195zm0 0" fill="#fff" fill-rule="nonzero"/></g></svg>